<?xml version="1.0" standalone="no"?>
<!DOCTYPE svg PUBLIC "-//W3C//DTD SVG 20010904//EN"
 "http://www.w3.org/TR/2001/REC-SVG-20010904/DTD/svg10.dtd">
<svg version="1.0" xmlns="http://www.w3.org/2000/svg"
 width="127.000000pt" height="127.000000pt" viewBox="0 0 127.000000 127.000000"
 preserveAspectRatio="xMidYMid meet">
<metadata>
Created by potrace 1.11, written by Peter Selinger 2001-2013
</metadata>
<g transform="translate(0.000000,127.000000) scale(0.100000,-0.100000)"
fill="#000000" stroke="none">
<path d="M337 852 l-337 -337 0 -218 0 -217 345 0 345 0 0 122 0 122 48 -47
c33 -33 56 -47 75 -47 23 0 27 -4 27 -28 0 -20 13 -41 48 -75 l48 -47 162 0
162 0 0 182 0 183 -142 142 -142 143 32 33 c27 28 32 40 32 82 0 42 -5 54 -32
82 -30 31 -31 34 -16 50 16 15 10 23 -75 114 l-92 98 -75 1 -75 0 -338 -338z"/>
</g>
</svg>
